Results
version=1
nRows=4
nColumns=85
inDegrees=yes
endheader
time	thorax_sagittal	thorax_frontal	thorax_horizontal	thorax_transx	thorax_transy	thorax_transz	cervix_sagittal	cervix_frontal	cervix_horizontal	caput_sagittal	caput_frontal	caput_horizontal	abdomen_sagittal	abdomen_frontal	abdomen_horizontal	cauda_sagittal	cauda_frontal	cauda_horizontal	left_r_m_superioris_sagittal	left_r_m_superioris_frontal	left_r_m_superioris_horizontal	left_r_m_superioris_transx	left_r_m_superioris_transy	left_r_m_superioris_transz	left_r_deltoidea_sagittal	left_r_deltoidea_frontal	left_r_deltoidea_horizontal	left_r_cubitalis_sagittal	left_r_cubitalis_frontal	left_r_cubitalis_horizontal	left_r_carpalis_sagittal	left_r_carpalis_frontal	left_r_carpalis_horizontal	left_r_forepaw_sagittal	left_r_forepaw_frontal	left_r_forepaw_horizontal	right_r_m_superioris_sagittal	right_r_m_superioris_frontal	right_r_m_superioris_horizontal	right_r_m_superioris_transx	right_r_m_superioris_transy	right_r_m_superioris_transz	right_r_deltoidea_sagittal	right_r_deltoidea_frontal	right_r_deltoidea_horizontal	right_r_cubitalis_sagittal	right_r_cubitalis_frontal	right_r_cubitalis_horizontal	right_r_carpalis_sagittal	right_r_carpalis_frontal	right_r_carpalis_horizontal	right_r_forepaw_sagittal	right_r_forepaw_frontal	right_r_forepaw_horizontal	m_inferioris_sagittal	m_inferioris_frontal	m_inferioris_horizontal	m_inferioris_transx	m_inferioris_transy	m_inferioris_transz	left_r_coxae_sagittal	left_r_coxae_frontal	left_r_coxae_horizontal	left_r_genus_sagittal	left_r_genus_frontal	left_r_genus_horizontal	left_r_talocruralis_sagittal	left_r_talocruralis_frontal	left_r_talocruralis_horizontal	left_r_hindpaw_sagittal	left_r_hindpaw_frontal	left_r_hindpaw_horizontal	right_r_coxae_sagittal	right_r_coxae_frontal	right_r_coxae_horizontal	right_r_genus_sagittal	right_r_genus_frontal	right_r_genus_horizontal	right_r_talocruralis_sagittal	right_r_talocruralis_frontal	right_r_talocruralis_horizontal	right_r_hindpaw_sagittal	right_r_hindpaw_frontal	right_r_hindpaw_horizontal
      5.78800000	    -94.74470009	      7.42493171	    -26.03837057	     -0.88727241	      0.29911432	     -3.81951590	    -12.34761502	      7.55815806	     -2.81386145	     20.08989026	     -2.33762710	    -23.40601001	      7.60139707	    -13.27199335	      6.01846648	      3.68422721	     -7.61883679	     -4.55822789	    -49.89289615	    -29.76280295	     -0.13842044	      0.03308354	     -0.17625523	      0.09645216	     85.75669936	      6.28922835	     -2.94644462	    -87.37754646	     36.78274548	     18.87056773	      2.81686867	    -14.86350058	      0.80000000	      0.00000000	      0.00000000	      0.00000000	    -17.97106060	     32.08023183	      9.57242787	     -0.03333877	     -0.18458201	      0.10406291	     91.20336783	     -4.85485951	     23.29624910	    -67.87681106	    -16.02247670	      5.91107720	    -24.54991670	     -3.76330533	      0.80000000	      0.00000000	      0.00000000	      0.00000000	     30.65537528	     14.31292046	    -14.15463824	     -0.00051085	     -0.06331230	      0.02663836	    -96.17670576	    -12.12689316	      5.11628084	     75.84080124	     15.09875593	     -0.71685846	    -55.22214318	      3.20084307	      2.30000000	      0.00000000	      0.00000000	      0.00000000	    -59.04953055	     -6.95689989	     -0.74595020	     93.90009746	     -6.40767232	      2.24836243	    -54.66017172	      0.60584125	      2.30000000	      0.00000000	      0.00000000	      0.00000000
      5.80466667	    -93.79201162	      8.55264686	    -27.76075566	     -0.88891076	      0.30113992	     -3.80549306	    -14.33810987	      7.33906135	      0.22474797	     21.47163739	     -2.94131866	    -22.84489265	      6.96882489	    -12.93042471	     10.36700961	      3.96326025	     -7.71264146	     -5.47151369	    -51.57078443	    -30.95353841	      0.45231482	      0.03560482	     -0.17565981	      0.09630414	     86.06005305	      6.69443165	     -0.28688857	    -82.07997272	     33.77175420	     17.96461710	     -0.29009098	    -15.41715745	      0.80000000	      0.00000000	      0.00000000	      0.00000000	    -17.08951105	     31.51313346	      9.43090668	     -0.03065792	     -0.18515841	      0.10385739	     90.10060652	     -5.00272633	     23.27447203	    -66.33735306	    -15.55229081	      6.50772915	    -23.19398796	     -5.04943426	      0.80000000	      0.00000000	      0.00000000	      0.00000000	     30.81770561	     13.77279796	    -14.83215251	     -0.00149482	     -0.06253909	      0.02645779	    -94.93156682	    -12.18910380	      4.17625921	     79.35520679	     14.53204913	     -1.41046433	    -60.49549089	      4.23816851	      2.30000000	      0.00000000	      0.00000000	      0.00000000	    -57.45489624	     -8.76508086	     -0.84324001	     93.12570944	     -6.52825931	      1.98241028	    -51.13504937	      0.91160162	      2.30000000	      0.00000000	      0.00000000	      0.00000000
      5.82133333	    -93.34778770	      9.10249193	    -29.04459551	     -0.88985941	      0.30018333	     -3.78951093	    -16.26506083	      6.57737535	      2.45186142	     22.39658198	     -3.36141518	    -21.56544468	      7.36798645	    -12.17032356	     13.82699481	      3.87753848	     -7.51150749	     -6.35628033	    -53.45242532	    -31.57411497	      0.12397208	      0.03657160	     -0.17422402	      0.09633766	     86.59299937	      6.30458200	      0.82444273	    -75.80761672	     31.81981431	     17.33902068	     -2.47556480	    -15.39195042	      0.80000000	      0.00000000	      0.00000000	      0.00000000	    -16.75572557	     31.24436089	      9.77573071	     -0.02918427	     -0.18474868	      0.10475995	     90.02497454	     -4.66402984	     23.02249428	    -65.29720477	    -14.83935877	      7.16006261	    -21.64222455	     -6.42698538	      0.80000000	      0.00000000	      0.00000000	      0.00000000	     30.59735867	     13.47216672	    -15.70055699	     -0.00226082	     -0.06203026	      0.02639872	    -94.81401461	    -12.47948934	      2.78433386	     82.70510468	     13.31255417	     -1.59086465	    -63.22657872	      4.55222399	      2.30000000	      0.00000000	      0.00000000	      0.00000000	    -56.05982959	    -10.91528172	     -0.62048444	     92.13116497	     -6.30655337	      2.08834303	    -47.95889531	      0.73592508	      2.30000000	      0.00000000	      0.00000000	      0.00000000
      5.83800000	    -92.91941253	      9.79709094	    -29.88388970	     -0.89175424	      0.29860068	     -3.77290004	    -17.71289032	      6.35813662	      3.94811473	     23.01781275	     -3.61956850	    -21.27276142	      8.01618592	    -11.49324021	     16.94129503	      3.94857044	     -7.46523370	     -7.04785530	    -54.86864197	    -32.20344240	     -0.52010071	      0.03770626	     -0.17302846	      0.09581684	     88.29274195	      5.66373902	      0.95306964	    -70.24646306	     30.35066169	     16.29055961	     -5.96120910	    -12.85687870	      0.80000000	      0.00000000	      0.00000000	      0.00000000	    -16.75435236	     31.33003441	     10.11075806	     -0.02808501	     -0.18436621	      0.10430997	     90.62358767	     -4.32960488	     22.99423967	    -64.14286549	    -14.30356689	      7.89408103	    -19.65897660	     -7.90125054	      0.80000000	      0.00000000	      0.00000000	      0.00000000	     30.57700823	     13.16506714	    -16.30543121	     -0.00289771	     -0.06119943	      0.02632006	    -94.73347314	    -13.14824942	      1.52070382	     85.35531421	     12.21670359	     -2.49147240	    -65.57781193	      5.65658710	      2.30000000	      0.00000000	      0.00000000	      0.00000000	    -56.81511054	    -12.39105852	     -0.98853463	     93.13126846	     -6.68597669	      2.00719341	    -45.56688879	      0.82346388	      2.30000000	      0.00000000	      0.00000000	      0.00000000
